HIERARCHY
ROOT teapot2
{
	OFFSET 0.000000 0.000000 0.000000
	CHANNELS 6 Xposition Yposition Zposition Yrotation Xrotation Zrotation
	End Site
	{
		OFFSET 0.000000 0.000000 0.000000
	}
}
MOTION
Frames: 120
Frame Time: 0.008333334
1.125648 3.673470 3.737201 -31.424650 -0.473114 1.410344 
1.126999 3.673565 3.737513 -31.416080 -0.407959 1.377974 
1.127873 3.673746 3.737900 -31.418000 -0.395538 1.349925 
1.127867 3.673925 3.737959 -31.417140 -0.400055 1.352734 
1.127660 3.674006 3.737864 -31.419890 -0.418427 1.370567 
1.127638 3.673823 3.737830 -31.417600 -0.394714 1.360238 
1.127278 3.673819 3.737882 -31.423710 -0.417481 1.363490 
1.126540 3.673671 3.737953 -31.420230 -0.384857 1.377268 
1.125478 3.673454 3.737750 -31.417570 -0.432373 1.404785 
1.124939 3.673271 3.737012 -31.416600 -0.412537 1.431460 
1.124761 3.673014 3.736333 -31.414670 -0.439514 1.439016 
1.124483 3.672992 3.736050 -31.407010 -0.433777 1.432784 
1.124383 3.673020 3.735981 -31.406680 -0.418427 1.433165 
1.124708 3.672988 3.735986 -31.410800 -0.438599 1.434170 
1.125166 3.673162 3.735686 -31.407440 -0.449585 1.421583 
1.125319 3.673182 3.735607 -31.410520 -0.452728 1.421456 
1.125302 3.673133 3.735811 -31.421880 -0.439911 1.423675 
1.125251 3.673219 3.736056 -31.415530 -0.421631 1.424240 
1.125308 3.673242 3.736268 -31.416230 -0.429199 1.417963 
1.125142 3.673158 3.736299 -31.409730 -0.415131 1.426116 
1.124724 3.673374 3.736347 -31.404390 -0.410584 1.463093 
1.124560 3.673034 3.736578 -31.427090 -0.418915 1.425033 
1.124593 3.672934 3.736593 -31.433930 -0.424133 1.421193 
1.124422 3.673105 3.736493 -31.430940 -0.416748 1.434801 
1.124604 3.673038 3.736398 -31.423030 -0.427216 1.431788 
1.124475 3.673195 3.736343 -31.425810 -0.408142 1.445131 
1.124654 3.673091 3.736279 -31.423250 -0.413300 1.425327 
1.124665 3.673118 3.736079 -31.423980 -0.418762 1.436811 
1.124588 3.672930 3.735910 -31.420930 -0.431519 1.435050 
1.124206 3.673022 3.735782 -31.422700 -0.438995 1.443254 
1.124001 3.672898 3.735711 -31.409610 -0.427277 1.439446 
1.123966 3.672831 3.735822 -31.425810 -0.412811 1.447156 
1.123744 3.672924 3.735897 -31.424500 -0.408752 1.442491 
1.123354 3.673020 3.735905 -31.400240 -0.405975 1.449845 
1.123435 3.672959 3.735912 -31.407870 -0.419952 1.458953 
1.123612 3.672931 3.736057 -31.419400 -0.419586 1.459525 
1.123613 3.672939 3.736168 -31.411590 -0.427033 1.449772 
1.123614 3.672994 3.736206 -31.403140 -0.383820 1.468439 
1.123362 3.672975 3.736109 -31.393460 -0.382233 1.469960 
1.123317 3.672818 3.736236 -31.403990 -0.412323 1.482544 
1.123012 3.672851 3.736180 -31.387540 -0.386749 1.498366 
1.122799 3.672796 3.736481 -31.405730 -0.399506 1.500169 
1.122483 3.672741 3.736666 -31.399840 -0.368652 1.496984 
1.122678 3.672717 3.736409 -31.404450 -0.394165 1.485636 
1.122658 3.672796 3.736322 -31.401120 -0.412445 1.493071 
1.122650 3.672866 3.736343 -31.410060 -0.417908 1.497737 
1.122844 3.672946 3.736308 -31.411870 -0.401733 1.496831 
1.123133 3.672835 3.736424 -31.412020 -0.415009 1.491899 
1.123173 3.672782 3.736345 -31.413420 -0.411072 1.489473 
1.122984 3.672645 3.736238 -31.403750 -0.443359 1.472315 
1.122895 3.672736 3.736237 -31.427280 -0.420563 1.478976 
1.122901 3.672596 3.736334 -31.421910 -0.425018 1.483557 
1.122760 3.672629 3.736368 -31.427250 -0.427612 1.487823 
1.122684 3.672722 3.736232 -31.426880 -0.402618 1.488399 
1.122710 3.672620 3.736205 -31.419620 -0.378326 1.477620 
1.122730 3.672579 3.736389 -31.421840 -0.406769 1.489060 
1.122906 3.672551 3.736322 -31.413730 -0.392822 1.484348 
1.122798 3.672609 3.736390 -31.410160 -0.406708 1.479504 
1.122889 3.672668 3.736462 -31.420720 -0.406097 1.481146 
1.122877 3.672673 3.736367 -31.410250 -0.406433 1.481056 
1.122932 3.672690 3.736302 -31.423740 -0.397522 1.466412 
1.122705 3.672667 3.736264 -31.412230 -0.390778 1.473944 
1.122469 3.672698 3.736352 -31.407320 -0.385040 1.492678 
1.122807 3.672573 3.736259 -31.415710 -0.394043 1.493240 
1.122773 3.672586 3.736314 -31.422820 -0.410278 1.483835 
1.122720 3.672597 3.736181 -31.405910 -0.400116 1.482930 
1.122826 3.672682 3.736184 -31.421660 -0.387268 1.480924 
1.122810 3.672678 3.736133 -31.410680 -0.403076 1.481701 
1.122920 3.672767 3.736066 -31.428590 -0.375061 1.471988 
1.122964 3.672764 3.735831 -31.394230 -0.404694 1.479453 
1.122907 3.672734 3.736114 -31.420410 -0.417511 1.482239 
1.122664 3.672772 3.736115 -31.402710 -0.406891 1.490526 
1.122831 3.672690 3.736297 -31.430330 -0.413391 1.485617 
1.122788 3.672779 3.736088 -31.417690 -0.358978 1.467698 
1.122827 3.672638 3.736159 -31.405580 -0.385346 1.478625 
1.122803 3.672716 3.736169 -31.413300 -0.377258 1.466747 
1.122912 3.672747 3.736304 -31.428650 -0.386353 1.462499 
1.123037 3.672801 3.736335 -31.418730 -0.396301 1.490935 
1.122699 3.672919 3.736207 -31.415100 -0.380859 1.483729 
1.122871 3.672724 3.736277 -31.437320 -0.396088 1.468845 
1.122623 3.672776 3.736167 -31.417510 -0.360352 1.481344 
1.122599 3.672861 3.736099 -31.416720 -0.371735 1.470526 
1.122894 3.672784 3.736197 -31.431240 -0.382141 1.462366 
1.123166 3.672984 3.736003 -31.401610 -0.385620 1.503027 
1.122953 3.672836 3.736032 -31.415770 -0.390442 1.489080 
1.122867 3.673010 3.735837 -31.396880 -0.464661 1.501074 
1.122525 3.672931 3.735839 -31.401210 -0.398438 1.493932 
1.122591 3.673030 3.735859 -31.410950 -0.397797 1.480753 
1.122721 3.673167 3.735896 -31.409390 -0.338593 1.505914 
1.122988 3.673065 3.736130 -31.406590 -0.377350 1.509788 
1.123196 3.672895 3.736240 -31.391850 -0.377258 1.476637 
1.123419 3.672740 3.736760 -31.401400 -0.454071 1.433547 
1.124058 3.672712 3.737504 -31.420990 -0.439636 1.387788 
1.124266 3.672940 3.737896 -31.446350 -0.426331 1.394365 
1.124051 3.673203 3.737544 -31.430240 -0.386810 1.438197 
1.123401 3.672873 3.737287 -31.435420 -0.446716 1.446590 
1.122875 3.672897 3.737052 -31.442170 -0.442658 1.443213 
1.122472 3.672720 3.737143 -31.446410 -0.371277 1.439555 
1.122318 3.672734 3.736905 -31.441160 -0.394196 1.438642 
1.122419 3.672413 3.736020 -31.412260 -0.370850 1.451388 
1.122541 3.672545 3.735355 -31.428010 -0.375641 1.458693 
1.122909 3.672661 3.734859 -31.439640 -0.371796 1.446505 
1.123513 3.672691 3.735001 -31.434840 -0.401947 1.434469 
1.123880 3.672694 3.735333 -31.427370 -0.390442 1.426328 
1.124425 3.672746 3.735817 -31.431850 -0.405640 1.402632 
1.124535 3.672765 3.736000 -31.436220 -0.428314 1.400305 
1.124227 3.672816 3.735959 -31.428960 -0.411591 1.409169 
1.123764 3.672849 3.736017 -31.433620 -0.404358 1.431393 
1.123226 3.672882 3.735727 -31.419460 -0.387451 1.433328 
1.123157 3.672461 3.735761 -31.438690 -0.415344 1.446675 
1.122641 3.672407 3.735312 -31.419920 -0.377594 1.457354 
1.122818 3.672336 3.734774 -31.425450 -0.384857 1.435837 
1.122964 3.672454 3.734301 -31.435120 -0.375244 1.425471 
1.123250 3.672387 3.733932 -31.439450 -0.382263 1.409588 
1.123270 3.672633 3.733525 -31.440550 -0.400452 1.422373 
1.123079 3.672976 3.733116 -31.457400 -0.448639 1.406510 
1.123424 3.672702 3.733630 -31.433170 -0.404907 1.424893 
1.123513 3.672410 3.734415 -31.446320 -0.384796 1.404347 
1.123525 3.672807 3.735038 -31.428220 -0.395050 1.424187 
1.123524 3.672811 3.735663 -31.416560 -0.384522 1.424565 
